<svg xmlns="http://www.w3.org/2000/svg" viewBox="0 0 512 512" width="512" height="512" role="img" aria-label="Rod of Asclepius">
  <title>Rod of Asclepius</title>
  <defs>
    <linearGradient id="bg" x1="0" y1="0" x2="1" y2="1"><stop offset="0" stop-color="#4859F2"/><stop offset="1" stop-color="#2C39CF"/></linearGradient>
    <clipPath id="front"><rect x="229.0" y="365.0" width="54" height="60"/><rect x="229.0" y="225.0" width="54" height="60"/></clipPath>
  </defs>
  <rect width="512" height="512" rx="112" fill="url(#bg)"/>
  <path d="M301.0 430 L335.0 430 C335.0 450 322.0 465 288 470 C302 458 301.0 446 301.0 430 Z" fill="#DDF25A"/>
  <path d="M318 430 C318 395 194 395 194 360 C194 325 318 325 318 290 C318 255 194 255 194 220 C194 185 318 185 318 150 C318 128 300 112 276 106" fill="none" stroke="#DDF25A" stroke-width="34" stroke-linecap="round" stroke-linejoin="round"/>
  <line x1="256" y1="64" x2="256" y2="468" stroke="#FFFFFF" stroke-width="26" stroke-linecap="round"/><circle cx="256" cy="64" r="19.0" fill="#FFFFFF"/>
  <g clip-path="url(#front)"><path d="M318 430 C318 395 194 395 194 360 C194 325 318 325 318 290 C318 255 194 255 194 220 C194 185 318 185 318 150 C318 128 300 112 276 106" fill="none" stroke="#3A4AE2" stroke-width="46" stroke-linecap="round" stroke-linejoin="round"/><path d="M318 430 C318 395 194 395 194 360 C194 325 318 325 318 290 C318 255 194 255 194 220 C194 185 318 185 318 150 C318 128 300 112 276 106" fill="none" stroke="#DDF25A" stroke-width="34" stroke-linecap="round" stroke-linejoin="round"/></g>
  <ellipse cx="268" cy="102" rx="28.6" ry="19.7" transform="rotate(25 268 102)" fill="#DDF25A"/><circle cx="258" cy="96" r="5" fill="#2C39CF"/>
</svg>
